<svg>
  <symbol style="enable-background:new 0 0 15.207 10.854" viewBox="0 0 15.207 10.854" xml:space="preserve" xmlns="http://www.w3.org/2000/svg" id="arrow_back">
     <path d="M11.707 0h-4v1h4c1.378 0 2.5 1.122 2.5 2.5S13.085 6 11.707 6H1.914L5.06 2.854l-.706-.708L0 6.5l4.354 4.354.707-.707L1.914 7h9.793c1.93 0 3.5-1.57 3.5-3.5s-1.57-3.5-3.5-3.5z" fill="currentColor"/>
  </symbol>
  <symbol version="1.0" xmlns="http://www.w3.org/2000/svg"  viewBox="0 0 100 100" id="sound_on">
    <path d="M37.7 17.8 24 31.5v37l13.8 13.8C45.3 89.8 52.3 96 53.2 96c.9 0 2.4-.7 3.2-1.6C57.8 93 58 87.6 58 50s-.2-43-1.6-44.4c-.8-.9-2.3-1.6-3.2-1.6-1 0-7.9 6.2-15.5 13.8zM78.4 22.5c-.4 1.1.7 2.7 3.4 5.1 2.2 1.9 5.3 6 6.9 9.2 2.3 4.7 2.8 7 2.8 13.2 0 6.2-.5 8.5-2.8 13.2-1.6 3.2-4.7 7.3-6.9 9.2-2.7 2.4-3.8 4-3.4 5.1.8 2.2 3.1.8 8.5-5 6.6-7.1 8.6-12.4 8.6-22.5s-2-15.4-8.6-22.5c-5.4-5.8-7.7-7.2-8.5-5z" fill="currentColor"/>
    <path d="M71.4 32.5c-.4.9.4 2.4 2.1 3.7C76.9 38.9 80 45.4 80 50c0 4.6-3.1 11.1-6.5 13.8-1.7 1.3-2.5 2.8-2.1 3.7.8 2.2 1.8 1.9 5.5-1.7 5.1-4.9 6.5-8.5 6.5-15.8 0-7.3-1.4-10.9-6.5-15.8-3.7-3.6-4.7-3.9-5.5-1.7zM6 34c-1.8 1.8-2 3.3-2 16 0 17.1.5 18 10 18h6V32h-6c-4.7 0-6.4.4-8 2z" fill="currentColor"/>
    <path d="M64.6 42.5c-.3.close-cross9.3 2.4 1.4 3.5 1.1 1.1 2 2.9 2 4s-.9 2.9-2 4c-1.9 1.9-1.8 5 .1 5 1.6 0 4.8-3.9 5.5-6.5.8-3.3-.2-7.1-2.6-9.5-2.4-2.4-3.6-2.5-4.4-.5z" fill="currentColor"/>
  </symbol>
  <symbol version="1.0" xmlns="http://www.w3.org/2000/svg"  viewBox="0 0 100 100" id="sound_off">
    <path d="M1 1.8C1 3.7 96.8 100 98.8 100c3 0 .7-4.1-6.3-11l-7.4-7.4 4-4.4c2.3-2.4 5.5-7.3 7.2-11 2.9-6.1 3.2-7.5 3.1-16.2 0-12.4-2.5-18.8-10.2-27.1-5.3-5.8-12.3-10.5-13.6-9.2-1.5 1.5-.3 3.2 4.5 6.3 6.5 4.2 11.4 10.8 13.9 18.9 4 12.6 1.7 24-6.8 34.6-3.9 4.8-5 5-8.3 1.9l-2.8-2.7 2.8-3.6c4.5-5.8 6.3-10.1 6.8-16.6.6-7.2-.7-12.8-4.5-18.3-3.1-4.7-10.6-10.7-12.2-9.7-1.9 1.2-.9 3 3.4 6.2 10.8 7.9 12.5 24.9 3.7 35.4l-3 3.4-3.7-3.7-3.7-3.6 2.6-3.2c3.3-3.9 4.1-6.9 3.2-11.7-1.1-6.3-9.8-12.9-12-9.3-.3.5.9 1.9 2.8 3 6.1 3.6 7.4 9.9 3.1 15l-2.7 3.1-4.3-4.2-4.4-4.3V30.5c0-16.5-.3-20.4-1.6-22.3C49.5 4 46.5 5.3 36.6 15l-9.2 9-11.9-12C3.7.2 1-1.7 1 1.8zM20.7 30.7c-.4.3-.7 9-.7 19.3v18.6l12.8 12.7C42.7 91 46.3 94 48.3 94c4.8 0 5.7-2.9 5.7-18.5v-14L38.2 45.7C29.6 37.1 22.2 30 21.9 30c-.3 0-.9.3-1.2.7zM2 34c-1.8 1.8-2 3.3-2 16 0 17.1.5 18 10 18h6V32h-6c-4.7 0-6.4.4-8 2z" fill="currentColor"/>
  </symbol>
  <symbol viewBox="0 0 100 100" xml:space="preserve" xmlns="http://www.w3.org/2000/svg" id="play">
    <path d="m31.356 25.677 38.625 22.3c1.557.899 1.557 3.147 0 4.046l-38.625 22.3c-1.557.899-3.504-.225-3.504-2.023V27.7c0-1.798 1.946-2.922 3.504-2.023z"/>
    <path d="m69.981 47.977-38.625-22.3a2.343 2.343 0 0 0-.716-.259l37.341 21.559c1.557.899 1.557 3.147 0 4.046l-38.625 22.3a2.296 2.296 0 0 1-1.078.301c.656.938 1.961 1.343 3.078.699l38.625-22.3c1.557-.899 1.557-3.147 0-4.046z"/>
    <path d="m31.356 25.677 38.625 22.3c1.557.899 1.557 3.147 0 4.046l-38.625 22.3c-1.557.899-3.504-.225-3.504-2.023V27.7c0-1.798 1.946-2.922 3.504-2.023z" fill="currentColor"/>
  </symbol>
  <symbol viewBox="0 0 100 100" xml:space="preserve" xmlns="http://www.w3.org/2000/svg" id="pause">
    <path d="M39.806 72.858h-8.915a3.94 3.94 0 0 1-3.94-3.94V31.119a3.94 3.94 0 0 1 3.94-3.94h8.915a3.94 3.94 0 0 1 3.94 3.94v37.799a3.94 3.94 0 0 1-3.94 3.94zM68.109 72.821h-8.915a3.94 3.94 0 0 1-3.94-3.94V31.082a3.94 3.94 0 0 1 3.94-3.94h8.915a3.94 3.94 0 0 1 3.94 3.94v37.799a3.94 3.94 0 0 1-3.94 3.94z"/>
    <path d="M40.489 27.248a3.919 3.919 0 0 1 1.257 2.871v37.799a3.94 3.94 0 0 1-3.94 3.94h-8.915c-.234 0-.46-.03-.683-.069a3.916 3.916 0 0 0 2.683 1.069h8.915a3.94 3.94 0 0 0 3.94-3.94V31.119a3.934 3.934 0 0 0-3.257-3.871zM68.792 27.211a3.919 3.919 0 0 1 1.257 2.871v37.799a3.94 3.94 0 0 1-3.94 3.94h-8.915c-.234 0-.46-.03-.683-.069a3.916 3.916 0 0 0 2.683 1.069h8.915a3.94 3.94 0 0 0 3.94-3.94V31.082a3.933 3.933 0 0 0-3.257-3.871z"/>
    <path d="M39.806 72.858h-8.915a3.94 3.94 0 0 1-3.94-3.94V31.119a3.94 3.94 0 0 1 3.94-3.94h8.915a3.94 3.94 0 0 1 3.94 3.94v37.799a3.94 3.94 0 0 1-3.94 3.94zM68.109 72.821h-8.915a3.94 3.94 0 0 1-3.94-3.94V31.082a3.94 3.94 0 0 1 3.94-3.94h8.915a3.94 3.94 0 0 1 3.94 3.94v37.799a3.94 3.94 0 0 1-3.94 3.94z" fill="currentColor"/>
  </symbol>
  <symbol viewBox="0 0 64 64" xmlns="http://www.w3.org/2000/svg" xml:space="preserve" style="fill-rule:evenodd;clip-rule:evenodd;stroke-linejoin:round;stroke-miterlimit:2" id="round">
    <path  d="M0 0h1280v800H0z" transform="translate(-576 -320)" fill="transparent"/>
    <circle cx="543.992" cy="352" r="14.13" transform="translate(-892.778 -566.387) scale(1.70002)" fill="currentColor"/>
  </symbol>
  <symbol xmlns="http://www.w3.org/2000/svg" viewBox="0 0 240 240" xml:space="preserve" id="arrow">
    <path fill="currentColor" stroke="#000" stroke-width="6.038" stroke-miterlimit="10" d="M43.1 123.8c0 6.4 5.1 11.7 11.2 11.7h117l-32.7 44.7c-1.8 2.4-2.5 5.3-2 8.2.5 2.9 2.1 5.5 4.5 7.3 1.9 1.4 4.2 2.1 6.6 2.1 3.6 0 7-1.7 9.1-4.6l45.7-62.8.1-.1c.3-.4.6-.9.8-1.4.5-1.1.9-2.2 1.1-3.3.1-.7.1-1.2.1-1.8 0-.5 0-1.1-.1-1.7-.2-1.2-.5-2.3-1-3.3 0 0 0-.1-.1-.1-.2-.4-.5-.9-.8-1.3-.1-.1-.1-.2-.2-.3l-45.7-62.8c-2.1-2.9-5.5-4.7-9.1-4.7-2.4 0-4.6.7-6.5 2.1-2.4 1.8-4 4.4-4.5 7.3-.5 2.9.3 5.8 2 8.3l32.7 44.7h-117c-6 0-11.2 5.4-11.2 11.8z"/>
  </symbol>
  <svg baseProfile="tiny" xmlns="http://www.w3.org/2000/svg" viewBox="0 0 42 42" xml:space="preserve" id="close-cross">
    <path fill-rule="evenodd" d="m21.002 26.588 10.357 10.604c1.039 1.072 1.715 1.083 2.773 0l2.078-2.128c1.018-1.042 1.087-1.726 0-2.839L25.245 21 36.211 9.775c1.027-1.055 1.047-1.767 0-2.84l-2.078-2.127c-1.078-1.104-1.744-1.053-2.773 0L21.002 15.412 10.645 4.809c-1.029-1.053-1.695-1.104-2.773 0L5.794 6.936c-1.048 1.073-1.029 1.785 0 2.84L16.759 21 5.794 32.225c-1.087 1.113-1.029 1.797 0 2.839l2.077 2.128c1.049 1.083 1.725 1.072 2.773 0l10.358-10.604z" fill="currentColor"/>
  </svg>
</svg>